<svg width="16" height="15" viewBox="0 0 16 15" fill="none" xmlns="http://www.w3.org/2000/svg">
<path fill-rule="evenodd" clip-rule="evenodd" d="M8.00621 0C3.85547 0 0.5 3.43749 0.5 7.69012C0.5 11.0895 2.64996 13.967 5.63253 14.9854C6.00543 15.062 6.14202 14.8199 6.14202 14.6163C6.14202 14.4381 6.12973 13.827 6.12973 13.1903C4.04169 13.6487 3.60687 12.2735 3.60687 12.2735C3.27131 11.3823 2.77411 11.1532 2.77411 11.1532C2.09069 10.6821 2.82389 10.6821 2.82389 10.6821C3.58198 10.7331 3.97977 11.4715 3.97977 11.4715C4.65074 12.6428 5.73194 12.3118 6.16691 12.1081C6.22899 11.6115 6.42796 11.2678 6.63922 11.0768C4.97386 10.8985 3.22168 10.2365 3.22168 7.28263C3.22168 6.44232 3.51975 5.75482 3.99206 5.22013C3.91754 5.0292 3.6565 4.23967 4.06673 3.18296C4.06673 3.18296 4.70052 2.97921 6.12958 3.97233C6.74141 3.80399 7.37238 3.71836 8.00621 3.71764C8.63999 3.71764 9.28607 3.80686 9.88268 3.97233C11.3119 2.97921 11.9457 3.18296 11.9457 3.18296C12.3559 4.23967 12.0947 5.0292 12.0202 5.22013C12.505 5.75482 12.7907 6.44232 12.7907 7.28263C12.7907 10.2365 11.0386 10.8857 9.36075 11.0768C9.63424 11.3187 9.87024 11.777 9.87024 12.5028C9.87024 13.534 9.85794 14.3617 9.85794 14.6162C9.85794 14.8199 9.99469 15.062 10.3674 14.9856C13.35 13.9668 15.5 11.0895 15.5 7.69012C15.5123 3.43749 12.1445 0 8.00621 0Z" fill="#24292F"/>
</svg>
