<svg width="16" height="15" viewBox="0 0 16 15" fill="none" xmlns="http://www.w3.org/2000/svg">
<rect x="0.5" width="15" height="15" rx="2" fill="white"/>
<path d="M14.3927 0H1.60729C1.31362 0 1.03198 0.116661 0.824318 0.324318C0.616661 0.531976 0.5 0.81362 0.5 1.10729V13.8927C0.5 14.1864 0.616661 14.468 0.824318 14.6757C1.03198 14.8833 1.31362 15 1.60729 15H14.3927C14.6864 15 14.968 14.8833 15.1757 14.6757C15.3833 14.468 15.5 14.1864 15.5 13.8927V1.10729C15.5 0.81362 15.3833 0.531976 15.1757 0.324318C14.968 0.116661 14.6864 0 14.3927 0ZM4.97083 12.7781H2.71563V5.61458H4.97083V12.7781ZM3.84167 4.62188C3.58585 4.62043 3.3362 4.54325 3.12421 4.40005C2.91222 4.25686 2.7474 4.05408 2.65055 3.81731C2.5537 3.58053 2.52915 3.32037 2.58002 3.06966C2.63088 2.81895 2.75488 2.58892 2.93635 2.40861C3.11782 2.2283 3.34863 2.10579 3.59967 2.05654C3.8507 2.00728 4.1107 2.0335 4.34685 2.13187C4.58299 2.23024 4.78471 2.39635 4.92654 2.60926C5.06837 2.82216 5.14395 3.07231 5.14375 3.32813C5.14616 3.4994 5.11407 3.6694 5.04938 3.828C4.9847 3.98661 4.88874 4.13056 4.76723 4.25129C4.64572 4.37202 4.50116 4.46705 4.34214 4.53072C4.18312 4.59439 4.01292 4.62539 3.84167 4.62188ZM13.2833 12.7844H11.0292V8.87083C11.0292 7.71667 10.5385 7.36042 9.90521 7.36042C9.23646 7.36042 8.58021 7.86458 8.58021 8.9V12.7844H6.325V5.61979H8.49375V6.6125H8.52292C8.74063 6.17188 9.50313 5.41875 10.6667 5.41875C11.925 5.41875 13.2844 6.16563 13.2844 8.35313L13.2833 12.7844Z" fill="#0A66C2"/>
</svg>
